solid ASCII
  facet normal 1.490116e-08 -1.000000e+00 0.000000e+00
    outer loop
      vertex   -1.118956e+02 1.062838e+01 0.000000e+00
      vertex   -1.018956e+02 1.062838e+01 0.000000e+00
      vertex   -1.118956e+02 1.062838e+01 5.000000e+01
    endloop
  endfacet
  facet normal 1.490116e-08 -1.000000e+00 0.000000e+00
    outer loop
      vertex   -1.118956e+02 1.062838e+01 5.000000e+01
      vertex   -1.018956e+02 1.062838e+01 0.000000e+00
      vertex   -1.018956e+02 1.062838e+01 5.000000e+01
    endloop
  endfacet
  facet normal 1.000000e+00 0.000000e+00 0.000000e+00
    outer loop
      vertex   -1.118956e+02 -2.137162e+01 0.000000e+00
      vertex   -1.118956e+02 1.062838e+01 0.000000e+00
      vertex   -1.118956e+02 -2.137162e+01 5.000000e+01
    endloop
  endfacet
  facet normal 1.000000e+00 -0.000000e+00 0.000000e+00
    outer loop
      vertex   -1.118956e+02 -2.137162e+01 5.000000e+01
      vertex   -1.118956e+02 1.062838e+01 0.000000e+00
      vertex   -1.118956e+02 1.062838e+01 5.000000e+01
    endloop
  endfacet
  facet normal 0.000000e+00 1.000000e+00 -0.000000e+00
    outer loop
      vertex   -1.018956e+02 -2.137162e+01 0.000000e+00
      vertex   -1.118956e+02 -2.137162e+01 0.000000e+00
      vertex   -1.018956e+02 -2.137162e+01 5.000000e+01
    endloop
  endfacet
  facet normal 0.000000e+00 1.000000e+00 0.000000e+00
    outer loop
      vertex   -1.018956e+02 -2.137162e+01 5.000000e+01
      vertex   -1.118956e+02 -2.137162e+01 0.000000e+00
      vertex   -1.118956e+02 -2.137162e+01 5.000000e+01
    endloop
  endfacet
  facet normal 1.000000e+00 -1.847744e-07 0.000000e+00
    outer loop
      vertex   -1.018956e+02 -4.137162e+01 0.000000e+00
      vertex   -1.018956e+02 -2.137162e+01 0.000000e+00
      vertex   -1.018956e+02 -4.137162e+01 5.000000e+01
    endloop
  endfacet
  facet normal 1.000000e+00 -1.847744e-07 0.000000e+00
    outer loop
      vertex   -1.018956e+02 -4.137162e+01 5.000000e+01
      vertex   -1.018956e+02 -2.137162e+01 0.000000e+00
      vertex   -1.018956e+02 -2.137162e+01 5.000000e+01
    endloop
  endfacet
  facet normal -2.980232e-08 -1.000000e+00 0.000000e+00
    outer loop
      vertex   -1.318956e+02 -4.137162e+01 0.000000e+00
      vertex   -1.018956e+02 -4.137162e+01 0.000000e+00
      vertex   -1.318956e+02 -4.137162e+01 5.000000e+01
    endloop
  endfacet
  facet normal -2.980232e-08 -1.000000e+00 0.000000e+00
    outer loop
      vertex   -1.318956e+02 -4.137162e+01 5.000000e+01
      vertex   -1.018956e+02 -4.137162e+01 0.000000e+00
      vertex   -1.018956e+02 -4.137162e+01 5.000000e+01
    endloop
  endfacet
  facet normal -1.000000e+00 2.980232e-08 0.000000e+00
    outer loop
      vertex   -1.318956e+02 3.062838e+01 0.000000e+00
      vertex   -1.318956e+02 -4.137162e+01 0.000000e+00
      vertex   -1.318956e+02 3.062838e+01 5.000000e+01
    endloop
  endfacet
  facet normal -1.000000e+00 2.980232e-08 0.000000e+00
    outer loop
      vertex   -1.318956e+02 3.062838e+01 5.000000e+01
      vertex   -1.318956e+02 -4.137162e+01 0.000000e+00
      vertex   -1.318956e+02 -4.137162e+01 5.000000e+01
    endloop
  endfacet
  facet normal 2.980232e-08 1.000000e+00 -0.000000e+00
    outer loop
      vertex   -1.018956e+02 3.062838e+01 0.000000e+00
      vertex   -1.318956e+02 3.062838e+01 0.000000e+00
      vertex   -1.018956e+02 3.062838e+01 5.000000e+01
    endloop
  endfacet
  facet normal 2.980232e-08 1.000000e+00 0.000000e+00
    outer loop
      vertex   -1.018956e+02 3.062838e+01 5.000000e+01
      vertex   -1.318956e+02 3.062838e+01 0.000000e+00
      vertex   -1.318956e+02 3.062838e+01 5.000000e+01
    endloop
  endfacet
  facet normal 1.000000e+00 -2.980232e-08 0.000000e+00
    outer loop
      vertex   -1.018956e+02 1.062838e+01 0.000000e+00
      vertex   -1.018956e+02 3.062838e+01 0.000000e+00
      vertex   -1.018956e+02 1.062838e+01 5.000000e+01
    endloop
  endfacet
  facet normal 1.000000e+00 -2.980232e-08 0.000000e+00
    outer loop
      vertex   -1.018956e+02 1.062838e+01 5.000000e+01
      vertex   -1.018956e+02 3.062838e+01 0.000000e+00
      vertex   -1.018956e+02 3.062838e+01 5.000000e+01
    endloop
  endfacet
  facet normal 0.000000e+00 -0.000000e+00 1.000000e+00
    outer loop
      vertex   -1.018956e+02 1.062838e+01 5.000000e+01
      vertex   -1.018956e+02 3.062838e+01 5.000000e+01
      vertex   -1.118956e+02 1.062838e+01 5.000000e+01
    endloop
  endfacet
  facet normal 0.000000e+00 -0.000000e+00 1.000000e+00
    outer loop
      vertex   -1.118956e+02 1.062838e+01 5.000000e+01
      vertex   -1.018956e+02 3.062838e+01 5.000000e+01
      vertex   -1.318956e+02 3.062838e+01 5.000000e+01
    endloop
  endfacet
  facet normal 0.000000e+00 0.000000e+00 1.000000e+00
    outer loop
      vertex   -1.118956e+02 1.062838e+01 5.000000e+01
      vertex   -1.318956e+02 3.062838e+01 5.000000e+01
      vertex   -1.318956e+02 -4.137162e+01 5.000000e+01
    endloop
  endfacet
  facet normal 0.000000e+00 0.000000e+00 1.000000e+00
    outer loop
      vertex   -1.118956e+02 1.062838e+01 5.000000e+01
      vertex   -1.318956e+02 -4.137162e+01 5.000000e+01
      vertex   -1.118956e+02 -2.137162e+01 5.000000e+01
    endloop
  endfacet
  facet normal 0.000000e+00 0.000000e+00 1.000000e+00
    outer loop
      vertex   -1.118956e+02 -2.137162e+01 5.000000e+01
      vertex   -1.318956e+02 -4.137162e+01 5.000000e+01
      vertex   -1.018956e+02 -4.137162e+01 5.000000e+01
    endloop
  endfacet
  facet normal -0.000000e+00 0.000000e+00 1.000000e+00
    outer loop
      vertex   -1.118956e+02 -2.137162e+01 5.000000e+01
      vertex   -1.018956e+02 -4.137162e+01 5.000000e+01
      vertex   -1.018956e+02 -2.137162e+01 5.000000e+01
    endloop
  endfacet
  facet normal -0.000000e+00 0.000000e+00 -1.000000e+00
    outer loop
      vertex   -1.018956e+02 1.062838e+01 0.000000e+00
      vertex   -1.118956e+02 1.062838e+01 0.000000e+00
      vertex   -1.018956e+02 3.062838e+01 0.000000e+00
    endloop
  endfacet
  facet normal -0.000000e+00 0.000000e+00 -1.000000e+00
    outer loop
      vertex   -1.018956e+02 3.062838e+01 0.000000e+00
      vertex   -1.118956e+02 1.062838e+01 0.000000e+00
      vertex   -1.318956e+02 3.062838e+01 0.000000e+00
    endloop
  endfacet
  facet normal 0.000000e+00 -0.000000e+00 -1.000000e+00
    outer loop
      vertex   -1.318956e+02 3.062838e+01 0.000000e+00
      vertex   -1.118956e+02 1.062838e+01 0.000000e+00
      vertex   -1.318956e+02 -4.137162e+01 0.000000e+00
    endloop
  endfacet
  facet normal 0.000000e+00 0.000000e+00 -1.000000e+00
    outer loop
      vertex   -1.318956e+02 -4.137162e+01 0.000000e+00
      vertex   -1.118956e+02 1.062838e+01 0.000000e+00
      vertex   -1.118956e+02 -2.137162e+01 0.000000e+00
    endloop
  endfacet
  facet normal 0.000000e+00 0.000000e+00 -1.000000e+00
    outer loop
      vertex   -1.318956e+02 -4.137162e+01 0.000000e+00
      vertex   -1.118956e+02 -2.137162e+01 0.000000e+00
      vertex   -1.018956e+02 -4.137162e+01 0.000000e+00
    endloop
  endfacet
  facet normal 0.000000e+00 0.000000e+00 -1.000000e+00
    outer loop
      vertex   -1.018956e+02 -4.137162e+01 0.000000e+00
      vertex   -1.118956e+02 -2.137162e+01 0.000000e+00
      vertex   -1.018956e+02 -2.137162e+01 0.000000e+00
    endloop
  endfacet
endsolid
