solid ASCII
  facet normal 1.490116e-08 -1.000000e+00 0.000000e+00
    outer loop
      vertex   -6.189563e+01 1.062838e+01 0.000000e+00
      vertex   -5.189563e+01 1.062838e+01 0.000000e+00
      vertex   -6.189563e+01 1.062838e+01 5.000000e+01
    endloop
  endfacet
  facet normal 1.490116e-08 -1.000000e+00 0.000000e+00
    outer loop
      vertex   -6.189563e+01 1.062838e+01 5.000000e+01
      vertex   -5.189563e+01 1.062838e+01 0.000000e+00
      vertex   -5.189563e+01 1.062838e+01 5.000000e+01
    endloop
  endfacet
  facet normal 1.000000e+00 0.000000e+00 0.000000e+00
    outer loop
      vertex   -6.189563e+01 -2.137162e+01 0.000000e+00
      vertex   -6.189563e+01 1.062838e+01 0.000000e+00
      vertex   -6.189563e+01 -2.137162e+01 5.000000e+01
    endloop
  endfacet
  facet normal 1.000000e+00 -0.000000e+00 0.000000e+00
    outer loop
      vertex   -6.189563e+01 -2.137162e+01 5.000000e+01
      vertex   -6.189563e+01 1.062838e+01 0.000000e+00
      vertex   -6.189563e+01 1.062838e+01 5.000000e+01
    endloop
  endfacet
  facet normal 3.552714e-16 1.000000e+00 -0.000000e+00
    outer loop
      vertex   -5.189563e+01 -2.137162e+01 0.000000e+00
      vertex   -6.189563e+01 -2.137162e+01 0.000000e+00
      vertex   -5.189563e+01 -2.137162e+01 5.000000e+01
    endloop
  endfacet
  facet normal 3.552714e-16 1.000000e+00 0.000000e+00
    outer loop
      vertex   -5.189563e+01 -2.137162e+01 5.000000e+01
      vertex   -6.189563e+01 -2.137162e+01 0.000000e+00
      vertex   -6.189563e+01 -2.137162e+01 5.000000e+01
    endloop
  endfacet
  facet normal 1.000000e+00 -1.847744e-07 0.000000e+00
    outer loop
      vertex   -5.189563e+01 -4.137162e+01 0.000000e+00
      vertex   -5.189563e+01 -2.137162e+01 0.000000e+00
      vertex   -5.189563e+01 -4.137162e+01 5.000000e+01
    endloop
  endfacet
  facet normal 1.000000e+00 -1.847744e-07 0.000000e+00
    outer loop
      vertex   -5.189563e+01 -4.137162e+01 5.000000e+01
      vertex   -5.189563e+01 -2.137162e+01 0.000000e+00
      vertex   -5.189563e+01 -2.137162e+01 5.000000e+01
    endloop
  endfacet
  facet normal -2.980232e-08 -1.000000e+00 0.000000e+00
    outer loop
      vertex   -8.189563e+01 -4.137162e+01 0.000000e+00
      vertex   -5.189563e+01 -4.137162e+01 0.000000e+00
      vertex   -8.189563e+01 -4.137162e+01 5.000000e+01
    endloop
  endfacet
  facet normal -2.980232e-08 -1.000000e+00 0.000000e+00
    outer loop
      vertex   -8.189563e+01 -4.137162e+01 5.000000e+01
      vertex   -5.189563e+01 -4.137162e+01 0.000000e+00
      vertex   -5.189563e+01 -4.137162e+01 5.000000e+01
    endloop
  endfacet
  facet normal -1.000000e+00 2.980232e-08 0.000000e+00
    outer loop
      vertex   -8.189563e+01 3.062838e+01 0.000000e+00
      vertex   -8.189563e+01 -4.137162e+01 0.000000e+00
      vertex   -8.189563e+01 3.062838e+01 5.000000e+01
    endloop
  endfacet
  facet normal -1.000000e+00 2.980232e-08 0.000000e+00
    outer loop
      vertex   -8.189563e+01 3.062838e+01 5.000000e+01
      vertex   -8.189563e+01 -4.137162e+01 0.000000e+00
      vertex   -8.189563e+01 -4.137162e+01 5.000000e+01
    endloop
  endfacet
  facet normal 2.980232e-08 1.000000e+00 -0.000000e+00
    outer loop
      vertex   -5.189563e+01 3.062838e+01 0.000000e+00
      vertex   -8.189563e+01 3.062838e+01 0.000000e+00
      vertex   -5.189563e+01 3.062838e+01 5.000000e+01
    endloop
  endfacet
  facet normal 2.980232e-08 1.000000e+00 0.000000e+00
    outer loop
      vertex   -5.189563e+01 3.062838e+01 5.000000e+01
      vertex   -8.189563e+01 3.062838e+01 0.000000e+00
      vertex   -8.189563e+01 3.062838e+01 5.000000e+01
    endloop
  endfacet
  facet normal 1.000000e+00 -2.980232e-08 0.000000e+00
    outer loop
      vertex   -5.189563e+01 1.062838e+01 0.000000e+00
      vertex   -5.189563e+01 3.062838e+01 0.000000e+00
      vertex   -5.189563e+01 1.062838e+01 5.000000e+01
    endloop
  endfacet
  facet normal 1.000000e+00 -2.980232e-08 0.000000e+00
    outer loop
      vertex   -5.189563e+01 1.062838e+01 5.000000e+01
      vertex   -5.189563e+01 3.062838e+01 0.000000e+00
      vertex   -5.189563e+01 3.062838e+01 5.000000e+01
    endloop
  endfacet
  facet normal 0.000000e+00 -0.000000e+00 1.000000e+00
    outer loop
      vertex   -5.189563e+01 1.062838e+01 5.000000e+01
      vertex   -5.189563e+01 3.062838e+01 5.000000e+01
      vertex   -6.189563e+01 1.062838e+01 5.000000e+01
    endloop
  endfacet
  facet normal 0.000000e+00 -0.000000e+00 1.000000e+00
    outer loop
      vertex   -6.189563e+01 1.062838e+01 5.000000e+01
      vertex   -5.189563e+01 3.062838e+01 5.000000e+01
      vertex   -8.189563e+01 3.062838e+01 5.000000e+01
    endloop
  endfacet
  facet normal 0.000000e+00 0.000000e+00 1.000000e+00
    outer loop
      vertex   -6.189563e+01 1.062838e+01 5.000000e+01
      vertex   -8.189563e+01 3.062838e+01 5.000000e+01
      vertex   -8.189563e+01 -4.137162e+01 5.000000e+01
    endloop
  endfacet
  facet normal 0.000000e+00 0.000000e+00 1.000000e+00
    outer loop
      vertex   -6.189563e+01 1.062838e+01 5.000000e+01
      vertex   -8.189563e+01 -4.137162e+01 5.000000e+01
      vertex   -6.189563e+01 -2.137162e+01 5.000000e+01
    endloop
  endfacet
  facet normal 0.000000e+00 0.000000e+00 1.000000e+00
    outer loop
      vertex   -6.189563e+01 -2.137162e+01 5.000000e+01
      vertex   -8.189563e+01 -4.137162e+01 5.000000e+01
      vertex   -5.189563e+01 -4.137162e+01 5.000000e+01
    endloop
  endfacet
  facet normal 0.000000e+00 0.000000e+00 1.000000e+00
    outer loop
      vertex   -6.189563e+01 -2.137162e+01 5.000000e+01
      vertex   -5.189563e+01 -4.137162e+01 5.000000e+01
      vertex   -5.189563e+01 -2.137162e+01 5.000000e+01
    endloop
  endfacet
  facet normal -0.000000e+00 0.000000e+00 -1.000000e+00
    outer loop
      vertex   -5.189563e+01 1.062838e+01 0.000000e+00
      vertex   -6.189563e+01 1.062838e+01 0.000000e+00
      vertex   -5.189563e+01 3.062838e+01 0.000000e+00
    endloop
  endfacet
  facet normal -0.000000e+00 0.000000e+00 -1.000000e+00
    outer loop
      vertex   -5.189563e+01 3.062838e+01 0.000000e+00
      vertex   -6.189563e+01 1.062838e+01 0.000000e+00
      vertex   -8.189563e+01 3.062838e+01 0.000000e+00
    endloop
  endfacet
  facet normal 0.000000e+00 -0.000000e+00 -1.000000e+00
    outer loop
      vertex   -8.189563e+01 3.062838e+01 0.000000e+00
      vertex   -6.189563e+01 1.062838e+01 0.000000e+00
      vertex   -8.189563e+01 -4.137162e+01 0.000000e+00
    endloop
  endfacet
  facet normal 0.000000e+00 0.000000e+00 -1.000000e+00
    outer loop
      vertex   -8.189563e+01 -4.137162e+01 0.000000e+00
      vertex   -6.189563e+01 1.062838e+01 0.000000e+00
      vertex   -6.189563e+01 -2.137162e+01 0.000000e+00
    endloop
  endfacet
  facet normal 0.000000e+00 0.000000e+00 -1.000000e+00
    outer loop
      vertex   -8.189563e+01 -4.137162e+01 0.000000e+00
      vertex   -6.189563e+01 -2.137162e+01 0.000000e+00
      vertex   -5.189563e+01 -4.137162e+01 0.000000e+00
    endloop
  endfacet
  facet normal 0.000000e+00 0.000000e+00 -1.000000e+00
    outer loop
      vertex   -5.189563e+01 -4.137162e+01 0.000000e+00
      vertex   -6.189563e+01 -2.137162e+01 0.000000e+00
      vertex   -5.189563e+01 -2.137162e+01 0.000000e+00
    endloop
  endfacet
endsolid
